<svg width="24" height="24" viewBox="0 0 24 24" fill="none" xmlns="http://www.w3.org/2000/svg">
<path d="M13.1151 14.6125C14.56 14.0135 15.2458 12.3567 14.6469 10.9118C14.048 9.46695 12.3911 8.78115 10.9462 9.38006C9.50136 9.97897 8.81556 11.6358 9.41447 13.0807C10.0134 14.5256 11.6702 15.2114 13.1151 14.6125Z" fill="#E9D599"/>
<path d="M16.5512 5.6759H7.44851C6.24701 5.6759 5.67575 6.2471 5.67575 7.44867V16.5514C5.67575 17.7529 6.24701 18.3241 7.44851 18.3241H16.5512C17.7527 18.3241 18.324 17.7529 18.324 16.5514V7.44867C18.324 6.2471 17.7527 5.6759 16.5512 5.6759ZM12.0242 15.9116C11.2504 15.9116 10.4939 15.6821 9.8505 15.2522C9.20708 14.8223 8.7056 14.2112 8.40947 13.4963C8.11333 12.7814 8.03585 11.9947 8.18682 11.2357C8.33779 10.4767 8.71042 9.7796 9.2576 9.23241C9.80478 8.68523 10.5019 8.3126 11.2609 8.16163C12.0199 8.01066 12.8065 8.08815 13.5215 8.38428C14.2364 8.68041 14.8475 9.18189 15.2774 9.82531C15.7073 10.4687 15.9368 11.2252 15.9368 11.999C15.9368 13.0367 15.5245 14.0319 14.7908 14.7656C14.057 15.4994 13.0619 15.9116 12.0242 15.9116ZM16.3691 8.66033C16.1655 8.66034 15.9664 8.59997 15.7971 8.48684C15.6278 8.37371 15.4958 8.21291 15.4179 8.02478C15.3399 7.83665 15.3195 7.62963 15.3593 7.4299C15.399 7.23017 15.497 7.04671 15.641 6.90271C15.785 6.75872 15.9685 6.66065 16.1682 6.62092C16.3679 6.58119 16.575 6.60157 16.7631 6.6795C16.9512 6.75743 17.112 6.88939 17.2252 7.05871C17.3383 7.22803 17.3987 7.42709 17.3987 7.63073C17.3987 7.90379 17.2902 8.16566 17.0971 8.35875C16.9041 8.55184 16.6422 8.66032 16.3691 8.66033Z" fill="#E9D599"/>
<path d="M12 0C5.3726 0 0 5.3726 0 12C0 18.6274 5.3726 24 12 24C18.6274 24 24 18.6274 24 12C24 5.3726 18.6274 0 12 0ZM19.4642 17.2796C19.4625 17.8584 19.2318 18.4131 18.8224 18.8224C18.4131 19.2318 17.8584 19.4625 17.2796 19.4642H6.72045C6.14157 19.4625 5.58689 19.2318 5.17756 18.8224C4.76823 18.4131 4.53753 17.8584 4.53583 17.2796V6.72045C4.53753 6.14157 4.76823 5.58689 5.17756 5.17756C5.58689 4.76823 6.14157 4.53753 6.72045 4.53583H17.2796C17.8584 4.53753 18.4131 4.76823 18.8224 5.17756C19.2318 5.58689 19.4625 6.14157 19.4642 6.72045V17.2796Z" fill="#E9D599"/>
</svg>
