<svg width="32" height="32" viewBox="0 0 32 32" fill="none" xmlns="http://www.w3.org/2000/svg">
<path fill-rule="evenodd" clip-rule="evenodd" d="M16.0386 0.370537C7.46445 0.370537 0.512451 7.27911 0.512451 15.8582C0.512451 24.3608 7.46446 31.3454 16.0386 31.3454C24.6127 31.3454 31.4874 24.3608 31.4874 15.8582C31.4874 7.27911 24.6127 0.370537 16.0386 0.370537ZM12.1763 23.3739H8.23688V9.78447H12.1763V23.3739ZM10.3225 8.94921C9.31831 8.94921 8.54586 8.18999 8.54586 7.12743C8.54586 6.14049 9.31831 5.30522 10.3225 5.30522C11.3267 5.38127 12.1763 6.14049 12.1763 7.12743C12.1763 8.18999 11.3267 8.94921 10.3225 8.94921ZM25.6941 23.3739H21.8319V14.9469C21.8319 13.9599 21.5229 13.2768 20.3642 13.2768C18.3559 13.2768 17.9697 14.9469 17.9697 14.9469V23.3739H14.1075V9.78447H17.9697V11.0752C18.5104 10.6954 19.9008 9.78447 21.8319 9.78447C23.0678 9.78447 25.6941 10.5437 25.6941 15.099L25.6941 23.3739Z" fill="#1B1B1B"/>
</svg>
