<svg width="24" height="24" viewBox="0 0 24 24" fill="none" xmlns="http://www.w3.org/2000/svg">
<path fill-rule="evenodd" clip-rule="evenodd" d="M12.029 0.652903C5.59837 0.652903 0.384369 5.83433 0.384369 12.2687C0.384369 18.6456 5.59837 23.8841 12.029 23.8841C18.4596 23.8841 23.6156 18.6456 23.6156 12.2687C23.6156 5.83433 18.4595 0.652903 12.029 0.652903ZM9.13229 17.9054H6.17769V7.71336H9.13229V17.9054ZM7.74189 7.08691C6.98876 7.08691 6.40943 6.5175 6.40943 5.72057C6.40943 4.98037 6.98876 4.35392 7.74189 4.35392C8.49502 4.41096 9.13229 4.98037 9.13229 5.72057C9.13229 6.5175 8.49502 7.08691 7.74189 7.08691ZM19.2706 17.9054H16.374V11.5852C16.374 10.845 16.1422 10.3326 15.2732 10.3326C13.767 10.3326 13.4773 11.5852 13.4773 11.5852V17.9054H10.5806V7.71336H13.4773V8.68139C13.8828 8.39652 14.9256 7.71336 16.3739 7.71336C17.3009 7.71336 19.2706 8.28277 19.2706 11.6992L19.2706 17.9054Z" fill="#E9D599"/>
</svg>
